<svg data-name="NHS Logo" xmlns="http://www.w3.org/2000/svg" viewBox="0 0 474.41 485.04">
    <g fill="#2f44aa" stroke="#231f20" stroke-linejoin="round" stroke-miterlimit="10" stroke-width="3">
        <path d="M215.75 5.55a3.39 3.39 0 00-3.53 2.83l-29.25 171a3.65 3.65 0 01-2.49 2.86l-25.54 7.52a2.36 2.36 0 01-2.82-2.72l32.87-178a2.09 2.09 0 00-2-2.46l-26.54-1.55a2.59 2.59 0 00-2.71 2.14l-77 435.93a2.93 2.93 0 001.23 2.93l24.23 15.51a2 2 0 003.05-1.27l39.59-226.89 29-7.45-42.15 244.88a3.21 3.21 0 002.06 3.56l19.7 7.25a2.59 2.59 0 003.45-2l84.08-472.9a2.33 2.33 0 00-2.21-2.75zM174.29 481.07l27.06-147.72a3.19 3.19 0 012.21-2.51l159.76-54.92a2.08 2.08 0 00-.2-4c-28.47-5.79-147.06-9.2-147.06-9.2a2.28 2.28 0 01-1.95-2.66l9.48-47.41a3.48 3.48 0 012.37-2.64l235.37-74.37a3.07 3.07 0 012.57 5.51l-42.21 30.15s-136.19 28.47-181.87 69c-2.93 2.61-5.7 9.18 8.9 7.32 61.9-7.91 96.11-2.3 112.13-1 21.75 1.78 57.86 8.86 57.51 22.52.35 18.92-40.64 23.82-97.22 41.75-25.83 8.19-75.1 26.61-93.16 33.43a17.06 17.06 0 00-9.95 9.94c-4.37 11.52-12.18 36.63-15.47 75.67-2.85 33.73-4.66 53.94-26.25 53.6a2.1 2.1 0 01-2.02-2.46zM43.56 190.95l-2.11 206.63a3.43 3.43 0 00.53 1.85l13.77 21.49a1.8 1.8 0 003.27-.69L132.11 5.6a2.22 2.22 0 00-2.05-2.62l-23.17-1.47a2.29 2.29 0 00-2.44 1.91L66.74 243.59a1.27 1.27 0 01-2.52-.2L74.33 21.54a.16.16 0 00-.29-.08l-21.37 22c-12.52 10.83-10.44 23.9-10.55 32l-.67 49.18a12.23 12.23 0 01-1.9 6.38c-10.49 16.53-62.1 115-24.56 214.94a.19.19 0 00.37 0c7.86-47.83 21.25-129.51 26-155.35.27-1.57 2.3-2.01 2.2.34z"/>
    </g>
    <g fill="#f6d379" stroke="#231f20" stroke-linejoin="round" stroke-miterlimit="10" stroke-width="3">
        <path d="M435.4 105.89l12.41-4.04 2.03-27.19 7.59 24.09 9.31-3.41 6.17-47.21-8.34.04-4.84 24.58-9.37-25.66-8.15-.35-6.81 59.15z"/>
        <path d="M409.03 45.38l-28.24 77 17.07-5 3.72-8.69 8.69-2.79-.62 8.07 14-5.59.31-62.68zm-5.9 50.27l8.73-23.24 1 20.81zM325.56 139.09l13.65-4.34 6.71-30.2a.13.13 0 01.25 0l2.47 13.45a2 2 0 003.83.11l6.52-15.13a.392.392 0 01.76.19l-3.78 27.23 14.27-5.23 14.35-81.51-11.91.61-15.47 39.63-1.55-39.73-13-.31zM297.03 16.73l.6 72.71-11.05 58.64a2.28 2.28 0 002.87 2.59l9.36-3.16a3.52 3.52 0 002.34-2.71l8-45.12 21.72-58-11.22-4.42s-10.5 25.06-10.5 24.91l.59-35.5a2.44 2.44 0 00-.89-1.88l-10.48-8.69a.81.81 0 00-1.34.63z" />
        <path d="M260.62 3.5L226.1 198.4l215.51-65.83s24.2-11.17 30.1-26.37c-30.41 8.69-212.55 64.54-212.55 64.54L287.08 9.39s.13-6.82-26.46-5.89z" />
    </g>
</svg>
