<svg id="NHS Logo" data-name="NHS Logo" xmlns="http://www.w3.org/2000/svg" viewBox="0 0 474.41 485.04">
    <g id="NHS">
        <path id="S" d="M386.3,69.38a3.39,3.39,0,0,0-3.53,2.83l-29.25,171a3.65,3.65,0,0,1-2.49,2.86l-25.54,7.52a2.36,2.36,0,0,1-2.82-2.72l32.87-178a2.09,2.09,0,0,0-2-2.46L327,68.86A2.59,2.59,0,0,0,324.29,71l-77,435.93a2.93,2.93,0,0,0,1.23,2.93l24.23,15.51a2,2,0,0,0,3.05-1.27l39.59-226.89,29-7.45L302.24,534.64a3.21,3.21,0,0,0,2.06,3.56L324,545.45a2.59,2.59,0,0,0,3.45-2l84.08-472.9a2.33,2.33,0,0,0-2.21-2.75Z" transform="translate(-170.55 -63.83)" style="fill:#377fac;stroke:#231f20;stroke-miterlimit:10;stroke-width:3px"/>
        <path id="H" d="M344.84,544.9,371.9,397.18a3.19,3.19,0,0,1,2.21-2.51l159.76-54.92a2.08,2.08,0,0,0-.2-4c-28.47-5.79-147.06-9.2-147.06-9.2a2.28,2.28,0,0,1-1.95-2.66l9.48-47.41a3.48,3.48,0,0,1,2.37-2.64l235.37-74.37a3.07,3.07,0,0,1,2.57,5.51l-42.21,30.15s-136.19,28.47-181.87,69c-2.93,2.61-5.7,9.18,8.9,7.32,61.9-7.91,96.11-2.3,112.13-1,21.75,1.78,57.86,8.86,57.51,22.52.35,18.92-40.64,23.82-97.22,41.75-25.83,8.19-75.1,26.61-93.16,33.43a17.06,17.06,0,0,0-9.95,9.94c-4.37,11.52-12.18,36.63-15.47,75.67-2.85,33.73-4.66,53.94-26.25,53.6A2.1,2.1,0,0,1,344.84,544.9Z" transform="translate(-170.55 -63.83)" style="fill:#377fac;stroke:#231f20;stroke-miterlimit:10;stroke-width:3px"/>
        <path id="N" d="M214.11,254.78,212,461.41a3.43,3.43,0,0,0,.53,1.85l13.77,21.49a1.8,1.8,0,0,0,3.27-.69L302.66,69.43a2.22,2.22,0,0,0-2.05-2.62l-23.17-1.47A2.29,2.29,0,0,0,275,67.25L237.29,307.42a1.27,1.27,0,0,1-2.52-.2L244.88,85.37a.16.16,0,0,0-.29-.08l-21.37,22c-12.52,10.83-10.44,23.9-10.55,32L212,188.47a12.23,12.23,0,0,1-1.9,6.38c-10.49,16.53-62.1,115-24.56,214.94a.19.19,0,0,0,.37,0c7.86-47.83,21.25-129.51,26-155.35C212.18,252.87,214.21,252.43,214.11,254.78Z" transform="translate(-170.55 -63.83)" style="fill:#377fac;stroke:#231f20;stroke-miterlimit:10;stroke-width:3px"/>
    </g>
    <g id="Lyman">
        <polygon id="N-2" data-name="N" points="435.4 105.89 447.81 101.85 449.84 74.66 457.43 98.75 466.74 95.34 472.91 48.13 464.57 48.17 459.73 72.75 450.36 47.09 442.21 46.74 435.4 105.89" style="fill:#f0e90d;stroke:#231f20;stroke-linejoin:round;stroke-width:3px"/>
        <path id="A" d="M579.58,109.21l-28.24,77,17.07-5,3.72-8.69,8.69-2.79-.62,8.07,14-5.59.31-62.68Zm-5.9,50.27,8.73-23.24,1,20.81Z" transform="translate(-170.55 -63.83)" style="fill:#f0e90d;stroke:#231f20;stroke-linejoin:round;stroke-width:3px"/>
        <path id="M" d="M496.11,202.92l13.65-4.34,6.71-30.2a.13.13,0,0,1,.25,0l2.47,13.45a2,2,0,0,0,3.83.11l6.52-15.13a.39.39,0,0,1,.76.19l-3.78,27.23L540.79,189l14.35-81.51-11.91.61-15.47,39.63L526.21,108l-13-.31Z" transform="translate(-170.55 -63.83)" style="fill:#f0e90d;stroke:#231f20;stroke-linejoin:round;stroke-width:3px"/>
        <path id="Y" d="M467.58,80.56l.6,72.71-11.05,58.64A2.28,2.28,0,0,0,460,214.5l9.36-3.16a3.52,3.52,0,0,0,2.34-2.71l8-45.12,21.72-58-11.22-4.42S479.7,126.15,479.7,126l.59-35.5a2.44,2.44,0,0,0-.89-1.88l-10.48-8.69A.81.81,0,0,0,467.58,80.56Z" transform="translate(-170.55 -63.83)" style="fill:#f0e90d;stroke:#231f20;stroke-linejoin:round;stroke-width:3px"/>
        <path id="L" d="M431.17,67.33l-34.52,194.9L612.16,196.4s24.2-11.17,30.1-26.37c-30.41,8.69-212.55,64.54-212.55,64.54L457.63,73.22S457.76,66.4,431.17,67.33Z" transform="translate(-170.55 -63.83)" style="fill:#f0e90d;stroke:#231f20;stroke-miterlimit:10;stroke-width:3px"/>
    </g>
</svg>
